<?xml version="1.0" encoding="UTF-8" standalone="no"?>
<svg width="200" height="200" viewBox="0 0 200 200" xmlns="http://www.w3.org/2000/svg">
  <defs>
    <linearGradient id="grad1" x1="0%" y1="0%" x2="100%" y2="100%">
      <stop offset="0%" style="stop-color:#1a237e;stop-opacity:1" />
      <stop offset="100%" style="stop-color:#3f51b5;stop-opacity:1" />
    </linearGradient>
  </defs>
  
  <!-- Background circle -->
  <circle cx="100" cy="100" r="90" fill="url(#grad1)" />
  
  <!-- Cloud shape (OpenStack) -->
  <path d="M75,120 C55,120 50,105 50,95 C50,75 65,70 75,70 L125,70 C145,70 150,85 150,95 C150,115 135,120 125,120 L75,120 Z" 
        fill="white" opacity="0.85" />
  
  <!-- Gears (DevOps) -->
  <g transform="translate(100,100)">
    <!-- Main gear -->
    <path d="M0,-30 L5,-15 L15,-20 L20,-10 L10,0 L20,10 L15,20 L5,15 L0,30 L-5,15 L-15,20 L-20,10 L-10,0 L-20,-10 L-15,-20 L-5,-15 Z" 
          fill="#ff9800" stroke="white" stroke-width="2" transform="rotate(22.5)" />
    
    <!-- Center circle -->
    <circle cx="0" cy="0" r="10" fill="white" />
  </g>
  
  <!-- Small gears -->
  <g transform="translate(60,85)">
    <path d="M0,-15 L3,-8 L8,-10 L10,-5 L5,0 L10,5 L8,10 L3,8 L0,15 L-3,8 L-8,10 L-10,5 L-5,0 L-10,-5 L-8,-10 L-3,-8 Z" 
          fill="#4caf50" stroke="white" stroke-width="1" transform="rotate(0)" />
    <circle cx="0" cy="0" r="6" fill="white" />
  </g>
  
  <g transform="translate(140,85)">
    <path d="M0,-15 L3,-8 L8,-10 L10,-5 L5,0 L10,5 L8,10 L3,8 L0,15 L-3,8 L-8,10 L-10,5 L-5,0 L-10,-5 L-8,-10 L-3,-8 Z" 
          fill="#e91e63" stroke="white" stroke-width="1" transform="rotate(45)" />
    <circle cx="0" cy="0" r="6" fill="white" />
  </g>
</svg>
